<?xml version="1.0" encoding="utf-8"?>
<!-- Generator: Adobe Illustrator 24.0.1, SVG Export Plug-In . SVG Version: 6.00 Build 0)  -->
<svg version="1.1" id="Layer_1" xmlns="http://www.w3.org/2000/svg" xmlns:xlink="http://www.w3.org/1999/xlink" x="0px" y="0px"
	 viewBox="0 0 195.5 181.8" style="enable-background:new 0 0 195.5 181.8;cursor: pointer;" xml:space="preserve" width="50px" height="50px">
<style type="text/css">
	.st0{fill:#000002;}
	.st1{fill:#040406;}
	.st2{fill:#434141;}
	.st3{fill:#2D2B2B;}
	.st4{fill:#161618;}
	.st5{fill:#D6D5D5;}
	.st6{fill:#AFADAD;}
	.st7{fill:#817F7E;}
	.st8{fill:#666565;}
	.st9{fill:#5B5959;}
	.st10{fill:url(#SVGID_1_);}
	.st11{fill:url(#SVGID_2_);}
	.st12{fill:#F63D00;}
	.st13{fill:#D3C1BB;}
	.st14{fill:#FFFFFF;}
	.st15{fill:#9E8982;}
	.st16{fill:#616060;}
	.st17{fill:#6A5A55;}
	.st18{fill:#383636;}
	.st19{fill:#FF835A;}
	.st20{fill:#FF622E;}
	.st21{fill:#E13A02;}
	.st22{fill:url(#SVGID_3_);}
	.st23{fill:#E03800;}
	.st24{fill:#929090;}
	.st25{fill:#FF4000;}
	.st26{fill:#171719;}
	.st27{fill:#1D1D1F;}
	.st28{fill:#FEEBE5;}
	.st29{fill:#FE5E29;}
	.st30{fill:#0C0C0E;}
	.st31{fill:#7A6057;}
	.st32{fill:#2F2E2E;}
	.st33{fill:#FF6C3B;}
	.st34{fill:#81807F;}
	.st35{fill:#393737;}
	.st36{fill:#131315;}
	.st37{fill:#BE8F7F;}
	.st38{fill:#FCFAF9;}
	.st39{fill:#FACCBD;}
	.st40{fill:#F4835E;}
	.st41{fill:#F0430A;}
	.st42{fill:#FF794D;}
	.st43{fill:#C43100;}
	.st44{fill:#FF916D;}
	.st45{fill:#EE5A29;}
</style>
<g>
	<path class="st0" d="M106.4,140.6l5.5-3.5l7.9-5.7c0,0-4.8-6.4-6.4-5.7S106,133,106,133L106.4,140.6z"/>
	<path class="st0" d="M34.6,99.7l5.5-3.5l7.9-5.7c0,0-4.8-6.4-6.4-5.7c-1.6,0.6-7.4,7.3-7.4,7.3L34.6,99.7z"/>
	<g>
		<path class="st1" d="M53.9,88.8c-2.1-1.2-4.1-1.5-5.6-0.8c-1.8,0.8-10.2,4.9-10.2,4.9L50,113.7c0,0,8.2-3.9,9.8-4.7
			c1.6-0.8,2.6-2.8,2.6-5.6C62.4,98.1,58.6,91.5,53.9,88.8z"/>
		<ellipse transform="matrix(0.8633 -0.5047 0.5047 0.8633 -45.9677 36.5137)" class="st2" cx="44.4" cy="103.1" rx="6.9" ry="12"/>

			<ellipse transform="matrix(0.8633 -0.5047 0.5047 0.8633 -46.0605 36.3559)" class="st3" cx="44.1" cy="103.2" rx="6.4" ry="11.2"/>

			<ellipse transform="matrix(0.8633 -0.5047 0.5047 0.8633 -45.9697 36.4499)" class="st4" cx="44.3" cy="103.1" rx="4.8" ry="8.3"/>
		<path class="st5" d="M39.1,100c0,3.4,2.4,7.4,5.3,9.1c2.9,1.7,5.3,0.3,5.3-3c0-3.4-2.4-7.4-5.3-9.1S39.1,96.7,39.1,100z"/>
		<path class="st6" d="M39.6,100.3c0,3.1,2.2,6.8,4.8,8.3c2.7,1.5,4.8,0.3,4.8-2.8c0-3.1-2.2-6.8-4.8-8.3S39.6,97.2,39.6,100.3z"/>
		<path class="st7" d="M41.1,101.1c0,2.1,1.5,4.7,3.4,5.8c1.9,1.1,3.4,0.2,3.4-1.9s-1.5-4.7-3.4-5.8C42.6,98.1,41.1,99,41.1,101.1z"
			/>
		<path class="st7" d="M45.1,108.4c-2.7-1.5-4.8-5.3-4.8-8.3c0-1.6,0.6-2.7,1.5-3.2c-1.3,0.2-2.2,1.4-2.2,3.4c0,3.1,2.2,6.8,4.8,8.3
			c1.3,0.7,2.5,0.8,3.3,0.4C47,109.2,46.1,109,45.1,108.4z"/>
		<path class="st7" d="M44.4,97.5c-1.5-0.9-2.9-0.9-3.8-0.1c0.9-0.4,2-0.3,3.3,0.4c2.7,1.5,4.8,5.3,4.8,8.3c0,1.3-0.4,2.3-1,2.8
			c1-0.5,1.6-1.6,1.6-3.2C49.3,102.8,47.1,99.1,44.4,97.5z"/>
		<path class="st8" d="M46.8,101.2c0,0.3,0.2,0.8,0.5,0.9c0.3,0.2,0.5,0,0.5-0.3s-0.2-0.8-0.5-0.9C47.1,100.7,46.8,100.9,46.8,101.2
			z"/>
		<path class="st8" d="M41.1,104.6c0,0.3,0.2,0.8,0.5,0.9c0.3,0.2,0.5,0,0.5-0.3s-0.2-0.8-0.5-0.9C41.3,104.1,41.1,104.3,41.1,104.6
			z"/>
		<path class="st8" d="M40,101.9c0,0.3,0.2,0.8,0.5,0.9c0.3,0.2,0.5,0,0.5-0.3s-0.2-0.8-0.5-0.9C40.3,101.4,40,101.5,40,101.9z"/>
		<path class="st8" d="M40,99.3c0,0.3,0.2,0.8,0.5,0.9c0.3,0.2,0.5,0,0.5-0.3s-0.2-0.8-0.5-0.9C40.3,98.8,40,98.9,40,99.3z"/>
		<path class="st8" d="M41.8,97.6c0,0.3,0.2,0.8,0.5,0.9c0.3,0.2,0.5,0,0.5-0.3s-0.2-0.8-0.5-0.9S41.8,97.3,41.8,97.6z"/>
		<path class="st8" d="M44.7,98.6c0,0.3,0.2,0.8,0.5,0.9c0.3,0.2,0.5,0,0.5-0.3s-0.2-0.8-0.5-0.9C44.9,98.1,44.7,98.3,44.7,98.6z"/>
		<path class="st8" d="M47.9,104.1c0,0.3,0.2,0.8,0.5,0.9c0.3,0.2,0.5,0,0.5-0.3s-0.2-0.8-0.5-0.9C48.1,103.6,47.9,103.8,47.9,104.1
			z"/>
		<path class="st8" d="M47.6,106.8c0,0.3,0.2,0.8,0.5,0.9c0.3,0.2,0.5,0,0.5-0.3s-0.2-0.8-0.5-0.9S47.6,106.5,47.6,106.8z"/>
		<path class="st8" d="M45.5,108c0,0.3,0.2,0.8,0.5,0.9c0.3,0.2,0.5,0,0.5-0.3s-0.2-0.8-0.5-0.9C45.7,107.5,45.5,107.6,45.5,108z"/>
		<path class="st8" d="M43,106.8c0,0.3,0.2,0.8,0.5,0.9c0.3,0.2,0.5,0,0.5-0.3s-0.2-0.8-0.5-0.9C43.3,106.4,43,106.5,43,106.8z"/>
		<path class="st5" d="M40.7,101.3c0,2.1,1.5,4.7,3.4,5.8c1.9,1.1,3.4,0.2,3.4-1.9s-1.5-4.7-3.4-5.8C42.2,98.3,40.7,99.1,40.7,101.3
			z"/>
		<path class="st3" d="M41.2,101.6c0,1.8,1.3,4,2.9,4.9c1.6,0.9,2.9,0.2,2.9-1.6s-1.3-4-2.9-4.9S41.2,99.8,41.2,101.6z"/>
		<path class="st9" d="M41.5,102c0,1.6,1.1,3.4,2.5,4.2c1.4,0.8,2.5,0.2,2.5-1.4s-1.1-3.4-2.5-4.2S41.5,100.4,41.5,102z"/>

			<linearGradient id="SVGID_1_" gradientUnits="userSpaceOnUse" x1="45.4918" y1="84.9747" x2="40.514" y2="70.6141" gradientTransform="matrix(1 0 0 -1 0 184)">
			<stop  offset="0.1176" style="stop-color:#000000"/>
			<stop  offset="0.2106" style="stop-color:#251B18"/>
			<stop  offset="0.3451" style="stop-color:#533E36"/>
			<stop  offset="0.4798" style="stop-color:#7A5A4F"/>
			<stop  offset="0.6123" style="stop-color:#987063"/>
			<stop  offset="0.742" style="stop-color:#AE8071"/>
			<stop  offset="0.8676" style="stop-color:#BB8A79"/>
			<stop  offset="0.9846" style="stop-color:#BF8D7C"/>
		</linearGradient>
		<path class="st10" d="M44.1,100.8c0,0-1.5-1.1-2.2,0.1c-0.4,0.6-0.2,1.2-0.2,1.2s0.7,1.1,2.1,2.1c1.2,0.8,2.4,1.4,2.4,1.4
			s0.5-1-0.2-2.5C45,101.2,44.1,100.8,44.1,100.8z"/>
	</g>
	<g>
		<path class="st1" d="M126.2,130.5c-2.1-1.2-4.1-1.5-5.6-0.8c-1.8,0.8-10.2,4.9-10.2,4.9l11.9,20.9c0,0,8.2-3.9,9.8-4.7
			s2.6-2.8,2.6-5.6C134.7,139.8,130.9,133.2,126.2,130.5z"/>
		<ellipse transform="matrix(0.8633 -0.5047 0.5047 0.8633 -57.099 78.7413)" class="st2" cx="116.8" cy="144.8" rx="6.9" ry="12"/>
		<ellipse transform="matrix(0.8633 -0.5047 0.5047 0.8633 -57.266 78.5841)" class="st3" cx="116.4" cy="145" rx="6.4" ry="11.2"/>
		<path class="st4" d="M110.7,141.4c0,3.7,2.6,8.3,5.9,10.2s5.9,0.4,5.9-3.4c0-3.7-2.6-8.3-5.9-10.2
			C113.3,136.2,110.7,137.7,110.7,141.4z"/>
		<path class="st5" d="M111.5,141.7c0,3.4,2.4,7.4,5.3,9.1c2.9,1.7,5.3,0.3,5.3-3c0-3.4-2.4-7.4-5.3-9.1
			C113.8,137,111.5,138.4,111.5,141.7z"/>
		<path class="st6" d="M111.9,142c0,3.1,2.2,6.8,4.8,8.3s4.8,0.3,4.8-2.8s-2.2-6.8-4.8-8.3S111.9,138.9,111.9,142z"/>
		<path class="st7" d="M113.4,142.8c0,2.1,1.5,4.7,3.4,5.8s3.4,0.2,3.4-1.9c0-2.1-1.5-4.7-3.4-5.8S113.4,140.7,113.4,142.8z"/>
		<path class="st7" d="M117.4,150.1c-2.7-1.5-4.8-5.3-4.8-8.3c0-1.6,0.6-2.7,1.5-3.2c-1.3,0.2-2.2,1.4-2.2,3.4
			c0,3.1,2.2,6.8,4.8,8.3c1.3,0.7,2.5,0.8,3.3,0.4C119.3,150.9,118.4,150.7,117.4,150.1z"/>
		<path class="st7" d="M116.8,139.2c-1.5-0.9-2.9-0.9-3.8-0.1c0.9-0.4,2-0.3,3.3,0.4c2.7,1.5,4.8,5.3,4.8,8.3c0,1.3-0.4,2.3-1,2.8
			c1-0.5,1.6-1.6,1.6-3.2C121.6,144.5,119.4,140.8,116.8,139.2z"/>
		<path class="st8" d="M119.2,142.9c0,0.3,0.2,0.8,0.5,0.9c0.3,0.2,0.5,0,0.5-0.3s-0.2-0.8-0.5-0.9
			C119.4,142.4,119.2,142.6,119.2,142.9z"/>
		<path class="st8" d="M113.4,146.3c0,0.3,0.2,0.8,0.5,0.9c0.3,0.2,0.5,0,0.5-0.3s-0.2-0.8-0.5-0.9
			C113.6,145.8,113.4,146,113.4,146.3z"/>
		<path class="st8" d="M112.3,143.6c0,0.3,0.2,0.8,0.5,0.9c0.3,0.2,0.5,0,0.5-0.3s-0.2-0.8-0.5-0.9
			C112.6,143.1,112.3,143.2,112.3,143.6z"/>
		<path class="st8" d="M112.3,141c0,0.3,0.2,0.8,0.5,0.9c0.3,0.2,0.5,0,0.5-0.3s-0.2-0.8-0.5-0.9S112.3,140.6,112.3,141z"/>
		<path class="st8" d="M114.1,139.3c0,0.3,0.2,0.8,0.5,0.9c0.3,0.2,0.5,0,0.5-0.3s-0.2-0.8-0.5-0.9
			C114.3,138.9,114.1,139,114.1,139.3z"/>
		<path class="st8" d="M117,140.3c0,0.3,0.2,0.8,0.5,0.9c0.3,0.2,0.5,0,0.5-0.3s-0.2-0.8-0.5-0.9C117.3,139.9,117,140,117,140.3z"/>
		<path class="st8" d="M120.2,145.8c0,0.3,0.2,0.8,0.5,0.9c0.3,0.2,0.5,0,0.5-0.3s-0.2-0.8-0.5-0.9
			C120.4,145.4,120.2,145.5,120.2,145.8z"/>
		<path class="st8" d="M119.9,148.6c0,0.3,0.2,0.8,0.5,0.9s0.5,0,0.5-0.3s-0.2-0.8-0.5-0.9C120.1,148.1,119.9,148.2,119.9,148.6z"/>
		<path class="st8" d="M117.8,149.7c0,0.3,0.2,0.8,0.5,0.9c0.3,0.2,0.5,0,0.5-0.3s-0.2-0.8-0.5-0.9
			C118.1,149.2,117.8,149.3,117.8,149.7z"/>
		<path class="st8" d="M115.4,148.6c0,0.3,0.2,0.8,0.5,0.9c0.3,0.2,0.5,0,0.5-0.3s-0.2-0.8-0.5-0.9
			C115.6,148.1,115.4,148.2,115.4,148.6z"/>
		<path class="st5" d="M113,143c0,2.1,1.5,4.7,3.4,5.8s3.4,0.2,3.4-1.9c0-2.1-1.5-4.7-3.4-5.8S113,140.9,113,143z"/>
		<ellipse transform="matrix(0.8633 -0.5047 0.5047 0.8633 -57.2599 78.5814)" class="st3" cx="116.4" cy="145" rx="2.3" ry="4"/>
		<ellipse transform="matrix(0.8633 -0.5047 0.5047 0.8633 -57.3582 78.4848)" class="st9" cx="116.2" cy="145.1" rx="2" ry="3.5"/>

			<linearGradient id="SVGID_2_" gradientUnits="userSpaceOnUse" x1="117.7911" y1="43.2727" x2="112.8132" y2="28.9118" gradientTransform="matrix(1 0 0 -1 0 184)">
			<stop  offset="0.1176" style="stop-color:#000000"/>
			<stop  offset="0.2106" style="stop-color:#251B18"/>
			<stop  offset="0.3451" style="stop-color:#533E36"/>
			<stop  offset="0.4798" style="stop-color:#7A5A4F"/>
			<stop  offset="0.6123" style="stop-color:#987063"/>
			<stop  offset="0.742" style="stop-color:#AE8071"/>
			<stop  offset="0.8676" style="stop-color:#BB8A79"/>
			<stop  offset="0.9846" style="stop-color:#BF8D7C"/>
		</linearGradient>
		<path class="st11" d="M116.4,142.5c0,0-1.5-1.1-2.2,0.1c-0.4,0.6-0.2,1.2-0.2,1.2s0.7,1.1,2.1,2.1c1.2,0.8,2.4,1.4,2.4,1.4
			s0.5-1-0.2-2.5C117.3,142.9,116.4,142.5,116.4,142.5z"/>
	</g>
	<path class="st12" d="M167.9,118.7c0.2,0.3,0.4,0.6,0.6,0.9c0.5,0.8,0.8,1.6,1.1,2.4c0.5-0.8,0.9-1.6,1.3-2.5
		c0.3-0.7,0.6-1.4,0.9-2.1l0,0l-0.3-10.1l-7.5-9.9c0,0,0,0-0.7-0.5s-2.2-1.3-2.2-1.3S150.8,76.5,149,73.5c-1.9-3-3.7-7.2-8.9-10.8
		c-5.1-3.6-10.2-6.8-10.2-6.8c-3.5-2.1-35.2-20.4-52-30l0,0L72,22.5c-0.7-0.4-1.3-0.5-1.9-0.5H70c-0.4,0.1-0.8,0.3-1,0.6
		c-0.2,0.3-0.4,0.6-0.5,1.1l-2.6,3.6L65,45.9l0,13.2l-1.2,0.3c0,0,0.4,5.5,0.7,6.8c0,0.2,0.1,0.4,0.1,0.5c0.3,1.1,0.9,2.2,2.3,3.3
		c1.7,1.3,8.5,6,8.5,6s0-1.1,0.4-2.4c0.8-3.1,3.1-7.6,9.9-3.6c4.5,2.6,6.9,6.7,8.2,10.4c0.7,2,1.1,3.9,1.3,5.3
		c0.2,1.6,0.2,2.6,0.2,2.6l3.3,1.5c0,0,43.7,25.2,46.5,26.8c2.8,1.6,6,4.1,6,4.1s0,0,0.8-5.3c0.1-0.5,0.2-1,0.4-1.5
		c1.5-3.9,6.2-3.5,12.5,1.4C166.1,116.4,167.1,117.5,167.9,118.7z"/>
	<path class="st13" d="M160.5,93.8c-1.8,1.4-4.5,3.7-7.3,5.8c-3.3,2.6-6.7,5.2-8.4,6.2c-0.6,0.4-1.5,0.9-2.4,1.4
		c-1.9,1-4.4,2.3-7,3.6c-3.8,1.9-7.9,3.8-11.1,5.3c-1.2,0.6-2.4,1.1-3.3,1.5l-0.9-0.5l-12.7-24.6l13.4-7.8l11-6.4l6.9-4l7.9-4.6
		l4.1,7L160.5,93.8z"/>
	<path class="st14" d="M155.4,95.8l1.7-1.6c0,0-1.8-4.1-3.9-8.1c-2.8-5.3-5.5-10.3-6.7-12.5c-0.5-1-1.1-1.9-1.6-2.6l-12.8,7.4
		c0.3,0.5,0.7,0.9,1.2,1.1c1.7,1,4.5,2.8,6.3,4.2c3,2.3,7.1,6.8,7.1,6.8L155.4,95.8z"/>
	<polygon class="st15" points="117.3,112.2 118.7,108.2 133.2,101.5 138.2,103.1 155.3,90.3 160.5,93.8 144.7,107.2 121,117.8
		120.1,117.2 	"/>
	<path class="st16" d="M135.4,110.9c-3.8,1.9-7.9,3.8-11.1,5.3l-3.5-31.3l11-6.4L135.4,110.9z M150.7,76.9l-4.1-7l-7.9,4.6l3.6,32.8
		c1-0.5,1.8-1,2.4-1.4c1.7-1.1,5.1-3.6,8.4-6.2L150.7,76.9z"/>
	<path class="st17" d="M146.1,70.4l-0.7,0.2l13.4,23.1c-3.9,3.2-12.6,10.1-15.7,12.1c-4.3,2.7-16.8,8.6-23,11.5l0.9,0.5
		c5.7-2.7,19.3-9.1,23.8-11.9c3.1-1.9,11-8.3,15-11.5L146.1,70.4z"/>
	<path class="st18" d="M147.6,109.4l13.9-13.7l-1.1-1.8c-3.9,3.2-12.6,10.1-15.7,12.1c-4.5,2.8-18.1,9.2-23.8,11.9l2.1,1.1
		L147.6,109.4z"/>
	<path class="st19" d="M146.1,70.4c0,0-3.2,3.4-14.5,9.6c-15,8.3-24,12.1-24,12.1l-12.4-6.3L75.8,73.7l-11.2-7l-34-21.3L29.8,45
		l39-22.5c0.3-0.3,0.6-0.5,1-0.6h0.1c0.4,0,0.7,0,1.2,0.1c0.2,0.1,0.5,0.2,0.7,0.3l5.9,3.4l0,0c16.8,9.7,48.4,27.9,52,30
		c0,0,5.1,3.2,10.2,6.8C145,66.2,144.2,67.3,146.1,70.4z"/>
	<path class="st20" d="M139.9,62.6L97.3,87.2l9.3,5.8c0,0,9-3.8,24-12.1c11.3-6.3,16-11,16-11C144.9,67.2,143.7,65.5,139.9,62.6z"/>
	<path class="st20" d="M71.1,22c-3.7,2.3-9.3,5.6-16.7,9.6c-10.8,6-18.8,10.7-23.8,13.8L29.8,45l39-22.5c0.3-0.3,0.6-0.5,1-0.6h0.1
		C70.3,21.9,70.7,21.9,71.1,22z"/>
	<path class="st21" d="M135.4,141.9l-0.4-9.4l-9.1-11.1c0,0,0,0-0.7-0.5s-2.2-1.3-2.2-1.3s-10.9-21.5-12.8-24.5s-3.1-4.9-8.2-8.4
		c-5.1-3.6-12.3-7.8-12.3-7.8c-4.2-2.5-46.3-26.8-57.9-33.5c-1.7-1-3.1-0.5-3.5,1.2l-1,4.5l-2.5,17.7L25,82.2l-0.2,0.5
		c0,0-0.7,5.3-0.4,6.6c0.3,1.3,0.8,2.6,2.5,3.9c0.7,0.5,2.2,1.6,3.8,2.8c0.8-0.7,1.8-1.4,2.8-1.8c0.5-0.2,0.9-0.4,1.4-0.6
		c0,0,0.2-0.1,0.4-0.2c1.1-1.2,2.7-1.8,4.2-1.4c1.5-0.5,3.5-0.2,6.2,1.3c4.5,2.6,6.9,6.7,8.2,10.4c0.1,0.4,0.3,0.8,0.4,1.2
		c1.1,3.8,1.1,6.8,1.1,6.8l3.3,1.5c0,0,43.8,25.1,46.5,26.8c0.7,0.5,1.3,0.9,1.3,0.9v-0.1c0-0.2-0.1-1.6,1-5.4
		c0.2-0.5,0.9-1.4,1.1-1.8c1.5-3.9,10,0.2,16.3,5.1c1.2,0.9,2.2,2,3,3.1c0.5,0.2,0.9,0.4,1.3,0.6c0.1,0,0.1,0,0.2,0
		c0.8,0,1.7,0,2.5,0C132.7,142.2,134.5,142.4,135.4,141.9L135.4,141.9z"/>

		<linearGradient id="SVGID_3_" gradientUnits="userSpaceOnUse" x1="97.7628" y1="132.5485" x2="65.2932" y2="62.5817" gradientTransform="matrix(1 0 0 -1 0 184)">
		<stop  offset="0.1176" style="stop-color:#000000"/>
		<stop  offset="0.381" style="stop-color:#512C20"/>
		<stop  offset="0.6752" style="stop-color:#A65A41"/>
		<stop  offset="0.8836" style="stop-color:#DB7756"/>
		<stop  offset="0.9846" style="stop-color:#F0825E"/>
	</linearGradient>
	<path class="st22" d="M103.1,111.6c2.2,2.3,4.5,3.9,4.5,3.9l16.4,8.7l8.7,6.7l-7.8-9.6l-2.9-1.7c0,0-7-18.9-15.4-27.1
		s-33-22.3-33-22.3L30.8,45.4c0,0-1.5-1.1-2.5,1c0,0.2-1,4.7-1,4.7l-2.5,17.7l52.3,29.5C77.1,98.3,100.9,109.3,103.1,111.6z"/>
	<g>
		<path class="st23" d="M106.4,138.8l-15.6-9v-10.7l-0.4-1.6l-2.5-1.4v-14.8l1.3-17.7c0-0.6,0.4-1.2,1-1.5s1.2-0.3,1.8,0.1
			c0.8,0.5,1.9,1.2,3.4,2.1c4,2.5,8.3,5.5,10.5,8.8c1.4,2.1,4.1,7.2,6.3,11.4c1,1.9,1.9,3.6,2.5,4.8c2,3.7,4.5,9.6,4.6,9.7v0.1
			l0.9,6.6l-3.4,4.2l-2.2-0.8c-2.5-1-4.3-0.8-5.5,0.5c-1.6,1.8-2.6,8.6-2.6,8.7L106.4,138.8z M91.6,129.5l14.4,8.3
			c0.3-1.6,1.2-6.9,2.7-8.5c1.4-1.5,3.4-1.8,6.2-0.7l1.8,0.7l3-3.7l-0.8-6.3c-0.2-0.5-2.6-6-4.5-9.6c-0.6-1.2-1.5-2.9-2.5-4.8
			c-2.2-4.2-4.9-9.3-6.3-11.4c-2.1-3.2-6.4-6.1-10.3-8.6c-1.5-0.9-2.6-1.6-3.3-2.1c-0.3-0.2-0.7-0.2-1.1,0C90.3,83,90,83.3,90,83.7
			l-1.3,17.7v14.3l2.4,1.4l0.5,2V129.5z"/>
	</g>
	<path class="st24" d="M107.3,133.1c0.4,0.2,0.3,0.6,0.9,0.9c1.5-3.9,6.9-3.6,13.2,1.3c1.3,1,2.1,2.6,2.9,3.7
		c0.2,0.3,0.5,0.1,0.7,0.4l1.1-0.7c0,0-1.6-3.9-6.7-6.9c-5.1-2.9-5.9-2.9-7.6-2.9C110.1,129,107.9,130.9,107.3,133.1z"/>
	<path class="st12" d="M24.8,68.8c0,0,2,0.7,2.3,2.5c0.2,1.8,0.4,12.4,0.4,12.4L25,82.2L24.8,68.8z"/>
	<path class="st25" d="M26.4,71c0.2,1.7,0.4,11.2,0.4,12.3l0.8,0.5c0,0-0.2-10.6-0.4-12.4c-0.2-1.8-2.3-2.5-2.3-2.5l0,0
		C25.4,69.2,26.2,69.9,26.4,71z"/>
	<path class="st18" d="M174.2,121.8c0,0-0.2,5-0.9,6.9c-0.6,2-1.1,2.4-1.1,2.4s-8,7.7-11.9,10.2c-5.9,3.7-26.7,11.3-27,11.4l0,0
		l0.1-1.6l0.6-9c0.3,0,0.6-0.1,0.8-0.1c0.6-0.1,1.3-0.3,2.1-0.6c0,0,15.4-4.8,19.7-7.3c4.9-2.9,16-14.3,16-14.3l1.1-1.3L174.2,121.8
		z"/>
	<path class="st3" d="M134.5,150c-0.1,0.4-0.2,0.7-0.3,1c-0.4,1.2-0.8,1.7-0.8,1.8l0,0c0,0-0.6,0.7-1.5,0.3s-4.3-1.6-4.3-1.6
		s0.3-5.8-2.8-11c-0.2-0.3-0.4-0.6-0.6-0.9l0.8-1.3l1.7,1.2l5,2.4l3.1-0.2v0.4l0.1,3C135,145,135.1,148,134.5,150z"/>
	<path class="st26" d="M174.2,121.8c0,0-0.2,5-0.9,6.9c-0.6,2-1.1,2.4-1.1,2.4s-8,7.7-11.9,10.2c-5.9,3.7-26.7,11.3-27,11.4l0,0
		c0,0-0.6,0.7-1.5,0.3s-4.3-1.6-4.3-1.6s0.3-5.8-2.8-11c0,0,2.8,2.4,3.3,6.2s0.6,4.1,0.6,4.1s2.4,0.8,4.8,0.4c0.2,0,0.5-0.1,0.7-0.2
		c0.2-0.1,0.4-0.1,0.6-0.2c2.6-1.1,20.1-7.2,22.2-8.9c2.2-1.7,9.4-6.2,13.8-10.5c2.5-2.4,3-7.8,3-7.8v-5L174.2,121.8z"/>
	<path class="st3" d="M107,134.1c0.4,0.2,1.8-1.3,2.5-1c1-1.4,5.4-1.8,11.6,3.1c1.3,1,2.3,2.1,3.1,3.3c0.2,0.3,0.4,0.6,0.6,0.9
		l1.1-0.7c0,0-1.6-3.9-6.7-6.9c-5.1-2.9-5.9-2.9-7.6-2.9C109.7,129.9,107.5,131.8,107,134.1z"/>
	<path class="st24" d="M54.2,100.3c0,0-0.3-0.6-1-1.8c-0.7-1.2-2.4-4.3-8.2-7.6c-5.7-3.3-7.7-1.1-7.7-1.1l-9.8-6.2L25,82.2v-1.1
		L23,83c0,0,1.2,4.9,1.5,6.3c0.3,1.3,0.8,2.6,2.5,3.9c0.9,0.7,3.3,2.4,5.3,3.8c1.2-1.9,2.9-3.4,4.7-4.8c0.9-0.7,2.1-0.8,3.2-0.5
		c1.4-0.3,3.2,0.1,5.6,1.5c4.5,2.6,6.9,6.7,8.2,10.4l53.8,28.8c0.1-0.2,0.3-0.4,0.5-0.6c0,0,0-0.1,0.1-0.1L54.2,100.3z"/>
	<path class="st3" d="M108.1,134.3c0.4-0.5,0.8-0.9,1.4-1.2l-56-32.3c0,0-0.3-0.6-1-1.8c-0.7-1.2-2.5-4.3-8.2-7.6
		c-5.7-3.3-7.7-1-7.7-1l-9.8-6.2l-2.6-1.5L23,83c0,0,0.4,5.5,0.7,6.8c0.3,1.3,0.8,2.6,2.5,3.9s8.5,6,8.5,6s0-1.1,0.4-2.6
		c0.8-3.1,3.1-7.3,9.9-3.4c4.5,2.6,6.9,6.7,8.2,10.4l54.2,31.3C107.4,135.3,108,134.4,108.1,134.3z"/>
	<path class="st27" d="M35.1,97.1c-0.4,1.4-0.4,2.6-0.4,2.6s-6.8-4.7-8.5-6s-2.2-2.5-2.5-3.9C23.4,88.4,23,83,23,83s0.9,6.4,2.9,8.6
		C26.8,92.5,30.9,94.8,35.1,97.1z"/>
	<polygon class="st28" points="24.9,70.7 25.8,71.2 25.9,76.3 25,75.7 	"/>
	<polygon class="st29" points="24.9,76.8 25.8,77.3 25.9,82.3 25,81.8 	"/>
	<path class="st3" d="M88.4,105.4l3.3,1.9c0,0,0.6,0.4,0.6,1.2c0,0.8,0,2.8,0,2.8s0,0.6-0.6,0.3c-0.6-0.4-3.3-1.9-3.3-1.9V105.4z"/>
	<polygon class="st30" points="91,110.7 89.6,110 89.6,106.8 91,107.5 	"/>
	<path class="st31" d="M115.5,115.1l-1.7,1.6l-8.1-4c0,0-1-1.1-2.3-2.4c-1.4-1.4-3.3-3.2-4.9-4.4c-1.2-0.9-3-2.1-4.5-3.1
		c-0.7-0.4-1.3-0.8-1.8-1.1c-1.1-0.7-1.9-2.1-2.1-3.4l0.6-13.2c-0.1-1.1,0.6-1.5,1.5-1c1.4,0.8,1.8,1.1,4.9,3.2
		c0.5,0.3,1.1,0.7,1.8,1.2c1.9,1.3,4.4,3.5,6.5,7.5c0.4,0.8,1,1.9,1.7,3.3c1.3,2.5,3.1,5.8,4.9,9.2
		C114.2,112.3,115.5,115.1,115.5,115.1z"/>
	<path class="st32" d="M107.2,99.1l-3.8,11.2c-1.4-1.4-3.3-3.2-4.9-4.4c-1.2-0.9-3-2.1-4.5-3.1l5-14.5c1.9,1.3,4.4,3.5,6.5,7.5
		C105.9,96.6,106.5,97.7,107.2,99.1z"/>
	<path class="st17" d="M114.2,116.1l-8.1-4c0,0-4.1-4.6-7.1-6.8c-1.8-1.4-4.7-3.2-6.3-4.2c-1.1-0.7-1.9-2.1-2.1-3.4l0.6-13.2
		c0-0.2,0-0.3,0-0.5c-0.3,0.2-0.4,0.6-0.4,1.1l-0.6,13.2c0.1,1.3,1,2.7,2.1,3.4c1.7,1,4.5,2.8,6.3,4.2c3,2.3,7.1,6.8,7.1,6.8l8.1,4
		l1.7-1.6c0,0,0-0.1-0.1-0.2L114.2,116.1z"/>
	<path class="st33" d="M171.3,107.2c0,0-11.4,11.3-15.9,14c-5.5,3.3-24.1,9.1-24.1,9.1l-9.1-11.1c0,0,18.3-8.5,24-12
		c4.1-2.5,15.3-11.5,15.3-11.5L171.3,107.2z"/>
	<path class="st18" d="M131.7,141.8c0,0,19.8-6.6,25.3-9.9c4.6-2.8,15-13.4,15-13.4l-0.7-11.3c0,0-11.4,11.3-15.9,14
		c-5.5,3.3-24.1,9.1-24.1,9.1L131.7,141.8z"/>
	<path class="st24" d="M137,141.4c0,0,15.4-4.8,19.7-7.3c4.9-2.9,16.2-13.9,16.2-13.9l0.9-1.7l-1.9-1.1l0.1,1.1
		c0,0-10.8,10.9-15.4,13.5c-4.7,2.8-21.6,8-21.6,8c-2.1,0.7-4.4,0.5-6.4-0.6l-3.6-2.6v1.4l0.1,0.2l4.7,2.9
		C132.6,142.6,134.1,142.4,137,141.4z"/>
	<path class="st34" d="M143.1,126.9l0.7,9.6c0,0,11.4-4,13-5.2c2.4-1.6,8.6-7.3,8.6-7.3l-0.7-10c0,0-6,6.4-10.1,8.5
		C151.6,123.9,147,125.7,143.1,126.9z"/>
	<path class="st35" d="M164.2,118.9c0,0-0.1,0.1-0.3,0.3l-0.1,0.1c-0.1,0.1-0.3,0.3-0.6,0.5c-0.1,0.1-0.2,0.2-0.4,0.4
		c0,0-0.1,0-0.1,0.1c-0.1,0.1-0.2,0.2-0.3,0.3c-1.2,1.1-2.9,2.7-4.5,4c-0.2,0.2-0.4,0.3-0.6,0.5c-0.2,0.1-0.4,0.3-0.6,0.4
		c-0.2,0.1-0.4,0.3-0.5,0.4s-0.3,0.2-0.4,0.3l-0.1,0.1c-0.2,0.1-0.3,0.2-0.5,0.3c-0.3,0.2-0.8,0.4-1.4,0.7c-0.1,0-0.1,0.1-0.2,0.1
		c-0.3,0.1-0.7,0.3-1.1,0.5h-0.1c-0.3,0.1-0.6,0.2-0.9,0.4c-0.2,0.1-0.3,0.1-0.5,0.2l0,0c-0.4,0.2-0.8,0.3-1.2,0.5
		c-0.5,0.2-1.1,0.4-1.6,0.6c-0.1,0-0.2,0.1-0.3,0.1c-0.3,0.1-0.6,0.2-0.9,0.3c-0.1,0-0.2,0.1-0.3,0.1c-0.9,0.3-1.7,0.6-2.2,0.8
		c-0.1,0-0.1,0-0.2,0.1c-0.2,0.1-0.2,0.1-0.2,0.1l-0.1-0.6l-0.3-2.8c3.2-1,7.1-2.4,9.8-3.7c0.3-0.1,0.6-0.3,0.9-0.4
		c0.8-0.4,1.7-1,2.6-1.7c2.4-1.8,5-4.3,6.1-5.5c0.2-0.3,0.4-0.4,0.5-0.6c0,0,0,0,0.1-0.1l0,0L164.2,118.9z"/>
	<path class="st35" d="M165,123.5c0,0-5.6,5.7-8.8,7.6c-0.2,0.1-0.5,0.3-0.9,0.5c-0.1,0.1-0.3,0.1-0.4,0.2c-3.1,1.3-9.8,3.7-9.8,3.7
		l-0.4-3.4c3.1-1,6.7-2.3,9.4-3.5c0.5-0.2,0.9-0.4,1.3-0.6c0.7-0.4,1.5-0.8,2.3-1.4c3.4-2.5,7.1-6.4,7.1-6.4L165,123.5z"/>
	<path class="st36" d="M164.2,118.9c0,0-3.6,3.7-6.7,6.1c-0.7,0.6-1.5,1.1-2.1,1.5c-0.3,0.2-0.8,0.4-1.4,0.7
		c-3.2,1.3-9.7,3.7-9.7,3.7l-0.1-0.6c1.9-0.7,7.4-2.7,9.7-3.7c0.3-0.2,0.6-0.3,0.8-0.4c0.8-0.5,1.7-1.2,2.7-2
		c2.9-2.4,6.1-5.6,6.1-5.6l-0.2-2.4c0.4-0.4,0.6-0.7,0.6-0.7L164.2,118.9z"/>
	<path class="st36" d="M157.5,125c-0.2,0.1-0.4,0.3-0.6,0.4c-0.2,0.1-0.4,0.3-0.5,0.4s-0.3,0.2-0.4,0.3l-0.1,0.1
		c-0.2,0.1-0.3,0.2-0.5,0.3c-0.3,0.2-0.8,0.4-1.4,0.7v-0.7l-0.2-2.8c0.3-0.1,0.6-0.3,0.9-0.4c0.8-0.4,1.7-1,2.6-1.7l0.2,2.5V125z"/>
	<path class="st36" d="M157.8,129.2l-2.6,2.3l-0.3,0.3l-0.1-0.1l-0.6-0.3l-0.2-2.9c0.5-0.2,0.9-0.4,1.3-0.6c0.7-0.4,1.5-0.8,2.3-1.4
		L157.8,129.2z"/>
	<path class="st36" d="M164.7,120.1c0,0-0.2,0.2-0.6,0.6l0.2,2.4c0,0-5.6,5.7-8.8,7.6c-1.4,0.8-8.3,3.4-10.5,4.1l0.1,0.6
		c0,0,9.5-3.4,11.1-4.4c3.2-1.9,8.8-7.6,8.8-7.6L164.7,120.1z"/>
	<g>
		<path class="st37" d="M136.3,133.3c2-0.6,4.5-1.5,6.4-2.3l-0.2-3.7c0,0-1.9,0.9-5.3,2c-3.1,1-5.3,1.5-5.3,1.5l0.2,3.6
			C132.8,134.2,134.1,133.9,136.3,133.3z"/>
		<path class="st37" d="M136.3,134.2c-2.2,0.6-3.4,0.9-4.1,1.1l0.2,3.3c0,0,2,0,6.4-1.6c4.3-1.6,4.2-1.6,4.2-1.6l-0.2-3.5
			C140.8,132.7,138.3,133.7,136.3,134.2z"/>
	</g>
	<g>
		<path class="st38" d="M139.8,129.9l-0.1-1.6c-0.7,0.3-1.5,0.5-2.5,0.8c-3.1,1-5.3,1.5-5.3,1.5l0.1,1.8c0.4-0.1,0.8-0.2,1.3-0.4
			C135.4,131.7,137.8,130.7,139.8,129.9z"/>
		<path class="st38" d="M140,134.4l-0.1-1.4c-1.3,0.5-2.5,0.9-3.7,1.2c-2.2,0.6-3.4,0.9-4.1,1.1l0.1,1.8c0.9-0.2,2.1-0.6,3.5-1.1
			C140,134.4,140,134.4,140,134.4z"/>
	</g>
	<g>
		<path class="st37" d="M167.3,115.8c1.3-1.1,2.7-2.6,3.9-3.9l-0.1-3.8c0,0-1.2,1.4-3.4,3.4c-2,1.8-2.6,2.4-2.6,2.4l0.3,3.6
			C165.8,117.1,165.9,116.9,167.3,115.8z"/>
		<path class="st37" d="M167.3,116.7c-1.4,1.2-1.4,1.3-1.8,1.7l0.2,3.4c0,0,0.5,0,3.3-2.8c2.7-2.7,2.5-2.6,2.5-2.6l-0.1-3.6
			C170.2,114.1,168.6,115.7,167.3,116.7z"/>
	</g>
	<g>
		<path class="st38" d="M169.9,111l-0.1-1.7c-0.6,0.6-1.3,1.3-2.2,2.1c-2,1.8-2.6,2.4-2.6,2.4l0.1,1.7c0.2-0.2,0.4-0.4,0.8-0.7
			C167.3,113.8,168.7,112.3,169.9,111z"/>
		<path class="st38" d="M170.3,115.4v-1.5c-1,1-2,2-3,2.8c-1.4,1.2-1.4,1.3-1.8,1.7l0.1,1.7c0.5-0.4,1.2-1,2.2-2
			C170.5,115.4,170.3,115.4,170.3,115.4z"/>
	</g>
	<path class="st39" d="M153.7,140.8v3.4c0,0.5,0.5,0.8,1,0.6l7.2-3.6c0.7-0.4,1.1-1.1,1.1-1.9v-3.5c0-0.5-0.5-0.8-1-0.6l-7.2,3.7
		C154.1,139.3,153.7,140,153.7,140.8z"/>
	<path class="st40" d="M154.5,144.6c-0.3,0-0.6-0.3-0.6-0.6v-3.3c0-0.7,0.4-1.4,1.1-1.7l6.9-3.6c0.1,0,0.2-0.1,0.3-0.1
		c0.3,0,0.6,0.3,0.6,0.6v3.4c0,0.7-0.4,1.4-1.1,1.7l-6.9,3.5C154.7,144.6,154.6,144.6,154.5,144.6z"/>
	<polygon class="st41" points="123.1,118.9 122.3,119.2 119.3,117.5 106.6,93 107.4,92.7 120.1,117.2 	"/>
	<polygon class="st41" points="146.6,69.9 146.1,70.4 159.7,94.4 161.1,96 161.5,95.7 160.5,93.8 	"/>
	<polygon class="st21" points="130.2,115.5 135.9,120.9 141.7,125.2 143.1,125.6 136.1,120.1 131,114.9 	"/>
	<polygon class="st42" points="131,114.9 136.1,120.1 143.1,125.6 155.6,120.3 164.2,113 159.2,105.7 155,100.8 	"/>
	<polygon class="st34" points="155.6,122.5 154.3,123.2 155,131.7 156.1,131.4 158.5,129.6 157.9,121.1 	"/>
	<g>
		<path id="XMLID_55_" d="M154.7,102.8l-0.3-0.3c-0.2-0.2-0.6-0.1-0.9,0.1l-4.9,3.2c-0.6,0.4-0.8,1-0.4,1.2l0.3,0.2
			c0.2,0.1,0.6,0.1,0.8-0.1l4.8-3.1C154.7,103.5,155,103,154.7,102.8z"/>
		<g>
			<polygon class="st42" points="152.9,102.7 153.3,102.5 154.8,103.7 154.4,104 			"/>
			<polygon class="st42" points="151.9,103.3 152.3,103.1 153.7,104.3 153.4,104.6 			"/>
			<polygon class="st42" points="150.9,103.9 151.2,103.7 152.7,104.9 152.4,105.2 			"/>
			<polygon class="st42" points="149.8,104.5 150.2,104.3 151.7,105.5 151.4,105.8 			"/>
			<polygon class="st42" points="148.9,105.1 149.2,105 150.7,106.2 150.4,106.4 			"/>
			<polygon class="st42" points="148,105.9 148.4,105.7 149.9,106.9 149.5,107.1 			"/>
		</g>
	</g>
	<g>
		<path id="XMLID_54_" d="M140,111.5l-0.3-0.4c-0.2-0.2-0.5-0.2-0.8,0l-4.8,2.6c-0.7,0.4-1,1-0.6,1.4l0.3,0.3c0.2,0.2,0.6,0.2,0.9,0
			l4.9-2.8C140.1,112.3,140.2,111.8,140,111.5z"/>
		<g>
			<polygon class="st42" points="138.4,111.2 138.7,111.1 140.1,112.5 139.8,112.7 			"/>
			<polygon class="st42" points="137.4,111.6 137.8,111.5 139.1,112.9 138.8,113.2 			"/>
			<polygon class="st42" points="136.4,112.1 136.8,111.9 138.2,113.4 137.8,113.7 			"/>
			<polygon class="st42" points="135.4,112.5 135.8,112.4 137.1,113.9 136.8,114.2 			"/>
			<polygon class="st42" points="134.4,113 134.8,112.9 136.1,114.5 135.7,114.8 			"/>
			<polygon class="st42" points="133.4,113.7 133.8,113.6 135.1,115.3 134.8,115.5 			"/>
		</g>
	</g>
	<g>
		<path class="st21" d="M65.7,89.5l13.8,8c1.3,0.8,3.1-0.3,3.3-2l1.8-12.8c0.3-2.3-0.6-4.4-2.3-5.4l-13.8-8c-1.3-0.8-3.1,0.3-3.3,2
			l-1.8,12.8C63,86.4,63.9,88.5,65.7,89.5z"/>
		<path class="st42" d="M80,97l-13.8-8c-1.8-1-2.7-3.1-2.3-5.4l1.8-12.8c0.1-0.5,0.3-1,0.6-1.3c-0.5,0.4-1,1-1.1,1.8l-1.8,12.8
			c-0.3,2.3,0.6,4.4,2.3,5.4l13.8,8c0.9,0.5,2.1,0.2,2.8-0.7C81.6,97.3,80.7,97.4,80,97z"/>
		<path class="st43" d="M63.3,85.4l1.8-12.8c0.2-1.7,2-2.8,3.3-2l13.8,8c1.3,0.8,2.2,2.2,2.4,3.8c0.2-2.2-0.7-4.1-2.4-5.1l-13.8-8
			c-1.3-0.8-3.1,0.3-3.3,2l-1.8,12.8c-0.1,0.5-0.1,1.1,0,1.6C63.3,85.6,63.3,85.5,63.3,85.4z"/>
		<polygon class="st44" points="63.5,83.3 66.5,84.3 66.9,82.2 64,81.5 64.2,80.5 66.8,81 67.2,78.9 64.6,78.4 64.8,77.4 67.7,78
			68.1,75.9 64.7,74.8 		"/>
		<path class="st42" d="M66.7,88.1L79,95.2c1.2,0.7,2.8-0.3,3-1.8L83.6,82c0.3-2-0.5-3.9-2.1-4.8l-12.3-7.1c-1.2-0.7-2.8,0.3-3,1.8
			l-1.6,11.4C64.3,85.4,65.2,87.2,66.7,88.1z"/>
		<path class="st45" d="M66.2,88.5l12.3,7.1c1.2,0.7,2.8-0.3,3-1.8l1.6-11.4c0.3-2-0.5-3.9-2.1-4.8l-12.3-7.1
			c-1.2-0.7-2.8,0.3-3,1.8l-1.6,11.4C63.8,85.8,64.6,87.6,66.2,88.5z"/>
	</g>
	<g>
		<path class="st21" d="M36.9,72.8l13.8,8c1.3,0.8,3.1-0.3,3.3-2L55.9,66c0.3-2.3-0.6-4.4-2.3-5.4l-13.8-8c-1.3-0.8-3.1,0.3-3.3,2
			l-1.8,12.8C34.3,69.7,35.2,71.8,36.9,72.8z"/>
		<polygon class="st44" points="54.2,78 55.4,69.4 55.2,69 53.8,77.4 		"/>
		<path class="st42" d="M51.2,80.3l-13.8-8c-1.8-1-2.7-3.1-2.3-5.4l1.8-12.8c0.1-0.5,0.3-1,0.6-1.3c-0.5,0.4-1,1-1.1,1.8l-1.8,12.8
			c-0.3,2.3,0.6,4.4,2.3,5.4l13.8,8c0.9,0.5,2.1,0.2,2.8-0.7C52.8,80.6,52,80.7,51.2,80.3z"/>
		<path class="st43" d="M34.6,68.7L36.4,56c0.2-1.7,2-2.8,3.3-2l13.8,8c1.3,0.8,2.2,2.2,2.4,3.8c0.2-2.2-0.7-4.1-2.4-5.1l-13.8-8
			c-1.3-0.8-3.1,0.3-3.3,2l-1.8,12.8c-0.1,0.5-0.1,1.1,0,1.6C34.6,68.9,34.6,68.8,34.6,68.7z"/>
		<path class="st42" d="M38,71.5l12.3,7.1c1.2,0.7,2.8-0.3,3-1.8l1.6-11.4c0.3-2-0.5-3.9-2.1-4.8l-12.3-7.1c-1.2-0.7-2.8,0.3-3,1.8
			l-1.6,11.4C35.6,68.7,36.4,70.6,38,71.5z"/>
		<path class="st45" d="M37.4,71.9L49.7,79c1.2,0.7,2.8-0.3,3-1.8l1.6-11.4c0.3-2-0.5-3.9-2.1-4.8l-12.3-7.1c-1.2-0.7-2.8,0.3-3,1.8
			l-1.6,11.4C35,69.1,35.8,71,37.4,71.9z"/>
	</g>
	<polygon class="st3" points="31.4,48.5 31.3,49.1 31,50.5 30.9,51.4 30.6,52.8 30.4,53.8 30.2,55.2 30,56 29.8,57.3 29.7,57.9
		29.6,58.2 29.5,59.7 29.4,60.7 29.2,62.2 29.1,63.2 29,64.7 28.8,66 28.7,67.5 28.5,69.4 26.2,68.2 26.5,66.4 26.7,65 27,63.7
		27.2,62.2 27.4,61.2 27.6,59.8 27.8,58.8 27.8,58.8 28.1,57.4 28.3,56.5 28.5,55.2 28.7,54.5 29,53.1 29.2,52.1 29.5,50.7
		29.6,49.8 29.9,48.4 30.1,47.7 	"/>
	<g>
		<path class="st21" d="M135.1,63.3L135.1,63.3c0.6-0.4,0.6-1-0.2-1.4L71,24.9c-0.7-0.4-1.8-0.5-2.5-0.1l0,0c-0.6,0.4-0.6,1,0.2,1.4
			l63.9,37C133.3,63.6,134.5,63.7,135.1,63.3z"/>
		<path class="st21" d="M129.8,66.4L129.8,66.4c0.6-0.4,0.6-1-0.2-1.4L65.7,28c-0.7-0.4-1.8-0.5-2.5-0.1l0,0c-0.6,0.4-0.6,1,0.2,1.4
			l63.9,37C128,66.7,129.1,66.8,129.8,66.4z"/>
		<path class="st21" d="M124.4,69.5L124.4,69.5c0.6-0.4,0.6-1-0.2-1.4L60.3,31c-0.7-0.4-1.8-0.5-2.5-0.1l0,0c-0.6,0.4-0.6,1,0.2,1.4
			l63.9,37C122.7,69.8,123.8,69.9,124.4,69.5z"/>
		<path class="st21" d="M119.1,72.6L119.1,72.6c0.6-0.4,0.6-1-0.2-1.4L55,34.1c-0.7-0.4-1.8-0.5-2.5-0.1l0,0c-0.6,0.4-0.6,1,0.2,1.4
			l63.9,37C117.3,72.9,118.4,72.9,119.1,72.6z"/>
		<path class="st21" d="M113.7,75.7L113.7,75.7c0.6-0.4,0.6-1-0.2-1.4l-63.9-37c-0.7-0.4-1.8-0.5-2.5-0.1l0,0
			c-0.6,0.4-0.6,1,0.2,1.4l63.9,37C112,76,113.1,76,113.7,75.7z"/>
		<path class="st21" d="M108.4,78.7L108.4,78.7c0.6-0.4,0.6-1-0.2-1.4l-63.9-37c-0.7-0.4-1.8-0.5-2.5-0.1l0,0
			c-0.6,0.4-0.6,1,0.2,1.4l63.9,37C106.6,79.1,107.8,79.1,108.4,78.7z"/>
		<path class="st21" d="M103,81.8L103,81.8c0.6-0.4,0.6-1-0.2-1.4l-63.9-37c-0.7-0.4-1.8-0.5-2.5-0.1l0,0c-0.6,0.4-0.6,1,0.2,1.4
			l63.9,37C101.3,82.1,102.4,82.2,103,81.8z"/>
	</g>
	<g>
		<path class="st42" d="M135.1,62.9L135.1,62.9c0.6-0.4,0.6-1-0.2-1.4L71,24.4c-0.7-0.4-1.8-0.5-2.5-0.1l0,0c-0.6,0.4-0.6,1,0.2,1.4
			l63.9,37C133.3,63.2,134.5,63.2,135.1,62.9z"/>
		<path class="st42" d="M129.8,65.9L129.8,65.9c0.6-0.4,0.6-1-0.2-1.4l-63.9-37c-0.7-0.4-1.8-0.5-2.5-0.1l0,0
			c-0.6,0.4-0.6,1,0.2,1.4l63.9,37C128,66.3,129.1,66.3,129.8,65.9z"/>
		<path class="st42" d="M124.4,69L124.4,69c0.6-0.4,0.6-1-0.2-1.4l-63.9-37c-0.7-0.4-1.8-0.5-2.5-0.1l0,0c-0.6,0.4-0.6,1,0.2,1.4
			l63.9,37C122.7,69.3,123.8,69.4,124.4,69z"/>
		<path class="st42" d="M119.1,72.1L119.1,72.1c0.6-0.4,0.6-1-0.2-1.4L55,33.7c-0.7-0.4-1.8-0.5-2.5-0.1l0,0c-0.6,0.4-0.6,1,0.2,1.4
			l63.9,37C117.3,72.4,118.4,72.5,119.1,72.1z"/>
		<path class="st42" d="M113.7,75.2L113.7,75.2c0.6-0.4,0.6-1-0.2-1.4l-63.9-37c-0.7-0.4-1.8-0.5-2.5-0.1l0,0
			c-0.6,0.4-0.6,1,0.2,1.4l63.9,37C112,75.5,113.1,75.6,113.7,75.2z"/>
		<path class="st42" d="M108.4,78.3L108.4,78.3c0.6-0.4,0.6-1-0.2-1.4l-63.9-37c-0.7-0.4-1.8-0.5-2.5-0.1l0,0
			c-0.6,0.4-0.6,1,0.2,1.4l63.9,37C106.6,78.6,107.8,78.6,108.4,78.3z"/>
		<path class="st42" d="M103,81.4L103,81.4c0.6-0.4,0.6-1-0.2-1.4L38.9,43c-0.7-0.4-1.8-0.5-2.5-0.1l0,0c-0.6,0.4-0.6,1,0.2,1.4
			l63.9,37C101.3,81.7,102.4,81.7,103,81.4z"/>
	</g>
	<path class="st2" d="M173.5,119.6c0,0,0.4,4.7-0.5,7c-0.9,2.3-9.4,8.5-9.4,8.5v-0.3c0-0.6-0.6-1-1.2-0.7l-8.4,4.6
		c-0.6,0.3-1,1-1,1.6v0.4c0,0-4.4,1.8-9.3,3.2c-5,1.4-8.7,1.9-8.7,1.9l-0.1-3.4c0,0,18.3-5.5,23.1-8.8
		C163.3,129.9,173.5,119.6,173.5,119.6z"/>
	<path class="st2" d="M134.9,142.4l0.1,3.4c0,0-2.5,0.1-3.8,0s-3.5-1.5-3.5-1.5s-0.9-2.2-1.7-3c-0.4-0.4-1.2-1.3-1.2-1.3l-1-2.2
		l-1.8-2.6c1.2,0.4,3.3,3.8,3.3,3.8s5,3.1,6.2,3.3C133.1,142.5,133.9,142.6,134.9,142.4z"/>
</g>
</svg>
