<?xml version="1.0" encoding="utf-8"?>
<!-- Generator: Adobe Illustrator 24.0.1, SVG Export Plug-In . SVG Version: 6.00 Build 0)  -->
<svg version="1.1" id="Layer_1" xmlns="http://www.w3.org/2000/svg" xmlns:xlink="http://www.w3.org/1999/xlink" x="0px" y="0px"
	 viewBox="0 0 34.2 48.9" style="enable-background:new 0 0 34.2 48.9;" xml:space="preserve" width="50px" height="50px">
<style type="text/css">
	.st0{fill:url(#Trazado_10629_1_);}
	.st1{fill:url(#Trazado_10630_1_);}
	.st2{fill:url(#Trazado_10629_6_);}
	.st3{fill:url(#Trazado_10630_6_);}
	.st4{fill:url(#Trazado_10629_7_);}
	.st5{fill:url(#Trazado_10630_7_);}
	.st6{fill:url(#Trazado_10629_8_);}
	.st7{fill:url(#Trazado_10630_8_);}
	.st8{fill:url(#Trazado_10629_9_);}
	.st9{fill:url(#Trazado_10630_9_);}
</style>
<g id="Grupo_10474" transform="translate(21996.15 11870.211)">

		<linearGradient id="Trazado_10629_1_" gradientUnits="userSpaceOnUse" x1="-22819.4141" y1="-11558.1504" x2="-22819.4141" y2="-11559.1504" gradientTransform="matrix(11.398 0 0 -5.3709 238116.8281 -73906.8516)">
		<stop  offset="0" style="stop-color:#00FFBA"/>
		<stop  offset="1" style="stop-color:#00B74D"/>
	</linearGradient>
	<path id="Trazado_10629_2_" class="st0" d="M-21975.3-11828.6c-2.5-0.9-5.2-0.9-7.7,0c-1.2,0.5-1.9,1.2-1.9,2s0.7,1.5,1.9,2
		c2.5,0.9,5.2,0.9,7.7,0c1.2-0.5,1.9-1.2,1.9-2S-21974.1-11828.1-21975.3-11828.6z"/>

		<linearGradient id="Trazado_10630_1_" gradientUnits="userSpaceOnUse" x1="-22834.8359" y1="-11485.9404" x2="-22834.8359" y2="-11486.9404" gradientTransform="matrix(29.351 0 0 -37.6855 648245.8125 -444721.3438)">
		<stop  offset="0" style="stop-color:#00FFBA"/>
		<stop  offset="1" style="stop-color:#00B74D"/>
	</linearGradient>
	<path id="Trazado_10630_2_" class="st1" d="M-21979.1-11867.6c-8.1,0-14.7,6.6-14.7,14.7c0,5,2.4,10.4,7,15.9
		c2.1,2.5,4.4,4.8,6.9,6.8c0.4,0.3,1,0.3,1.4,0c2.5-2,4.9-4.3,7-6.8c4.7-5.6,7-10.9,7-15.9
		C-21964.4-11861.1-21971-11867.6-21979.1-11867.6z M-21973.7-11853c0,3-2.4,5.4-5.4,5.4c-3,0-5.4-2.4-5.4-5.4c0-3,2.4-5.4,5.4-5.4
		C-21976.1-11858.4-21973.7-11856-21973.7-11853C-21973.7-11853-21973.7-11853-21973.7-11853L-21973.7-11853z"/>
</g>
</svg>
